<?xml version="1.0" encoding="UTF-8"?>
<svg version="1.1" xmlns="http://www.w3.org/2000/svg" width="512" height="512">
<path d="M0 0 C1.45132828 0.00081573 1.45132828 0.00081573 2.93197632 0.00164795 C18.49714543 0.04177553 33.3929744 0.92077136 48.625 4.375 C50.10468262 4.70443604 50.10468262 4.70443604 51.61425781 5.04052734 C80.51222723 11.64564394 108.41992147 23.11969791 132.625 40.375 C133.18461426 40.77315918 133.74422852 41.17131836 134.32080078 41.58154297 C137.8218359 44.09735157 141.23798269 46.70832017 144.625 49.375 C145.58148438 50.12652344 146.53796875 50.87804687 147.5234375 51.65234375 C153.25610208 56.24632838 158.53948558 61.07856563 163.625 66.375 C164.8625 67.6125 164.8625 67.6125 166.125 68.875 C167.3625 70.1125 167.3625 70.1125 168.625 71.375 C169.18445313 71.89964844 169.74390625 72.42429687 170.3203125 72.96484375 C207.93646993 108.98193376 231.56666584 166.36999223 232.91474915 217.97415161 C232.99406333 222.56640864 233.009742 227.15714059 233 231.75 C232.99918427 233.20132828 232.99918427 233.20132828 232.99835205 234.68197632 C232.95822447 250.24714543 232.07922864 265.1429744 228.625 280.375 C228.40537598 281.36145508 228.18575195 282.34791016 227.95947266 283.36425781 C218.73869154 323.70599091 199.50211452 358.20245622 172.625 389.375 C171.97402344 390.15101563 171.32304687 390.92703125 170.65234375 391.7265625 C167.28185761 395.70358259 163.73226205 399.19088282 159.75 402.5546875 C158.32434979 403.77592463 156.92811315 405.032291 155.5625 406.3203125 C141.2890736 419.75121025 124.9014909 430.25444974 107.625 439.375 C106.46629395 439.99133301 106.46629395 439.99133301 105.28417969 440.62011719 C84.18024898 451.67802991 61.08094139 458.52578032 37.625 462.375 C36.54001221 462.55901367 35.45502441 462.74302734 34.3371582 462.93261719 C23.33117985 464.61534632 12.42710829 464.7734688 1.3125 464.75 C0.34245026 464.74945618 -0.62759949 464.74891235 -1.62704468 464.74835205 C-17.21128224 464.708258 -32.1243004 463.83346342 -47.375 460.375 C-48.36145508 460.15537598 -49.34791016 459.93575195 -50.36425781 459.70947266 C-90.70599091 450.48869154 -125.20245622 431.25211452 -156.375 404.375 C-157.15101563 403.72402344 -157.92703125 403.07304687 -158.7265625 402.40234375 C-162.70358259 399.03185761 -166.19088282 395.48226205 -169.5546875 391.5 C-170.77592463 390.07434979 -172.032291 388.67811315 -173.3203125 387.3125 C-186.75121025 373.0390736 -197.25444974 356.6514909 -206.375 339.375 C-206.99133301 338.21629395 -206.99133301 338.21629395 -207.62011719 337.03417969 C-224.01074932 305.75280014 -231.77252841 270.67470218 -231.69067383 235.52270508 C-231.68752306 232.70809787 -231.71104324 229.89455585 -231.73632812 227.08007812 C-231.79682872 210.00802049 -229.76362519 193.38975608 -225.625 176.8125 C-225.23658936 175.24338867 -225.23658936 175.24338867 -224.84033203 173.64257812 C-215.47639605 136.85848532 -196.94076138 102.48064478 -170.75 74.92578125 C-168.35491093 72.42068372 -168.35491093 72.42068372 -166.2890625 69.74609375 C-164.55531186 67.59836592 -162.85352392 65.89733079 -160.75 64.125 C-158.55737492 62.25987083 -156.39482227 60.39370237 -154.30078125 58.41796875 C-140.02913749 44.993159 -123.64677505 34.49306068 -106.375 25.375 C-105.6025293 24.96411133 -104.83005859 24.55322266 -104.03417969 24.12988281 C-71.83253642 7.25705634 -36.11002262 -0.07659362 0 0 Z " fill="#95A5A6" transform="translate(255.375,23.625)"/>
</svg>
